<svg width="55" height="54" viewBox="0 0 55 54" fill="currentColor" xmlns="http://www.w3.org/2000/svg">
    <path fill-rule="evenodd" clip-rule="evenodd" d="M45.8333 5.44538H9.16667C7.39475 5.44538 5.95833 6.86753 5.95833 8.62185V44.9244C5.95833 46.6787 7.39475 48.1008 9.16667 48.1008H45.8333C47.6052 48.1008 49.0417 46.6787 49.0417 44.9244V8.62185C49.0417 6.86753 47.6052 5.44538 45.8333 5.44538ZM9.16667 4.08403C6.63536 4.08403 4.58333 6.11568 4.58333 8.62185V44.9244C4.58333 47.4305 6.63536 49.4622 9.16667 49.4622H45.8333C48.3646 49.4622 50.4167 47.4305 50.4167 44.9244V8.62185C50.4167 6.11568 48.3646 4.08403 45.8333 4.08403H9.16667Z" fill="black" fill-opacity="0.5"/>
    <path fill-rule="evenodd" clip-rule="evenodd" d="M41.25 9.98319H13.75C11.9781 9.98319 10.5417 11.4053 10.5417 13.1597V40.3866C10.5417 42.1409 11.9781 43.563 13.75 43.563H41.25C43.0219 43.563 44.4583 42.1409 44.4583 40.3866V13.1597C44.4583 11.4053 43.0219 9.98319 41.25 9.98319ZM13.75 8.62185C11.2187 8.62185 9.16667 10.6535 9.16667 13.1597V40.3866C9.16667 42.8927 11.2187 44.9244 13.75 44.9244H41.25C43.7813 44.9244 45.8333 42.8927 45.8333 40.3866V13.1597C45.8333 10.6535 43.7813 8.62185 41.25 8.62185H13.75Z" fill="black" fill-opacity="0.5"/>
    <path fill-rule="evenodd" clip-rule="evenodd" d="M4.58333 35.6218V36.9832H0V35.6218H4.58333Z" fill="black" fill-opacity="0.5"/>
    <path fill-rule="evenodd" clip-rule="evenodd" d="M4.58333 17.0168V18.3782H0V17.0168H4.58333Z" fill="black" fill-opacity="0.5"/>
    <path fill-rule="evenodd" clip-rule="evenodd" d="M4.58333 20.1933V21.5546H0V20.1933H4.58333Z" fill="black" fill-opacity="0.5"/>
    <path fill-rule="evenodd" clip-rule="evenodd" d="M4.58333 23.3697V24.7311H0V23.3697H4.58333Z" fill="black" fill-opacity="0.5"/>
    <path fill-rule="evenodd" clip-rule="evenodd" d="M4.58333 26.0924V27.4538H0V26.0924H4.58333Z" fill="black" fill-opacity="0.5"/>
    <path fill-rule="evenodd" clip-rule="evenodd" d="M4.58333 29.2689V30.6303H0V29.2689H4.58333Z" fill="black" fill-opacity="0.5"/>
    <path fill-rule="evenodd" clip-rule="evenodd" d="M4.58333 32.4454V33.8067H0V32.4454H4.58333Z" fill="black" fill-opacity="0.5"/>
    <path fill-rule="evenodd" clip-rule="evenodd" d="M35.9792 0H37.3542V4.53782H35.9792V0Z" fill="black" fill-opacity="0.5"/>
    <path fill-rule="evenodd" clip-rule="evenodd" d="M17.1875 0H18.5625V4.53782H17.1875V0Z" fill="black" fill-opacity="0.5"/>
    <path fill-rule="evenodd" clip-rule="evenodd" d="M20.3958 0H21.7708V4.53782H20.3958V0Z" fill="black" fill-opacity="0.5"/>
    <path fill-rule="evenodd" clip-rule="evenodd" d="M23.6042 0H24.9792V4.53782H23.6042V0Z" fill="black" fill-opacity="0.5"/>
    <path fill-rule="evenodd" clip-rule="evenodd" d="M26.3542 0H27.7292V4.53782H26.3542V0Z" fill="black" fill-opacity="0.5"/>
    <path fill-rule="evenodd" clip-rule="evenodd" d="M29.5625 0H30.9375V4.53782H29.5625V0Z" fill="black" fill-opacity="0.5"/>
    <path fill-rule="evenodd" clip-rule="evenodd" d="M32.7708 0H34.1458V4.53782H32.7708V0Z" fill="black" fill-opacity="0.5"/>
    <path fill-rule="evenodd" clip-rule="evenodd" d="M35.9792 49.4622H37.3542V54H35.9792V49.4622Z" fill="black" fill-opacity="0.5"/>
    <path fill-rule="evenodd" clip-rule="evenodd" d="M17.1875 49.4622H18.5625V54H17.1875V49.4622Z" fill="black" fill-opacity="0.5"/>
    <path fill-rule="evenodd" clip-rule="evenodd" d="M20.3958 49.4622H21.7708V54H20.3958V49.4622Z" fill="black" fill-opacity="0.5"/>
    <path fill-rule="evenodd" clip-rule="evenodd" d="M23.6042 49.4622H24.9792V54H23.6042V49.4622Z" fill="black" fill-opacity="0.5"/>
    <path fill-rule="evenodd" clip-rule="evenodd" d="M26.3542 49.4622H27.7292V54H26.3542V49.4622Z" fill="black" fill-opacity="0.5"/>
    <path fill-rule="evenodd" clip-rule="evenodd" d="M29.5625 49.4622H30.9375V54H29.5625V49.4622Z" fill="black" fill-opacity="0.5"/>
    <path fill-rule="evenodd" clip-rule="evenodd" d="M32.7708 49.4622H34.1458V54H32.7708V49.4622Z" fill="black" fill-opacity="0.5"/>
    <path fill-rule="evenodd" clip-rule="evenodd" d="M55 35.6218V36.9832H50.4167V35.6218H55Z" fill="black" fill-opacity="0.5"/>
    <path fill-rule="evenodd" clip-rule="evenodd" d="M55 17.0168V18.3782H50.4167V17.0168H55Z" fill="black" fill-opacity="0.5"/>
    <path fill-rule="evenodd" clip-rule="evenodd" d="M55 20.1933V21.5546H50.4167V20.1933H55Z" fill="black" fill-opacity="0.5"/>
    <path fill-rule="evenodd" clip-rule="evenodd" d="M55 23.3697V24.7311H50.4167V23.3697H55Z" fill="black" fill-opacity="0.5"/>
    <path fill-rule="evenodd" clip-rule="evenodd" d="M55 26.0924V27.4538H50.4167V26.0924H55Z" fill="black" fill-opacity="0.5"/>
    <path fill-rule="evenodd" clip-rule="evenodd" d="M55 29.2689V30.6303H50.4167V29.2689H55Z" fill="black" fill-opacity="0.5"/>
    <path fill-rule="evenodd" clip-rule="evenodd" d="M55 32.4454V33.8067H50.4167V32.4454H55Z" fill="black" fill-opacity="0.5"/>
</svg>
